<?xml version="1.0" encoding="utf-8"?>
<!-- Generator: Adobe Illustrator 16.0.0, SVG Export Plug-In . SVG Version: 6.00 Build 0)  -->
<!DOCTYPE svg PUBLIC "-//W3C//DTD SVG 1.1//EN" "http://www.w3.org/Graphics/SVG/1.1/DTD/svg11.dtd">
<svg version="1.1" id="Layer_1" xmlns="http://www.w3.org/2000/svg" xmlns:xlink="http://www.w3.org/1999/xlink" x="0px" y="0px"
	 width="512px" height="512px" viewBox="0 0 512 512" enable-background="new 0 0 512 512" xml:space="preserve">
<title>ionicons-v5-j</title>
<path d="M463.98,253.12C462.44,140.91,371.09,49.56,258.9,48C141.92,46.42,46.42,141.92,48,258.9
	C49.56,371.09,140.91,462.44,253.1,464C370.1,465.6,465.579,370.1,463.98,253.12z M388.344,349.998l-131.88,19.768v-41.059h41.68
	v-21.303h-41.68v-24.082h31.637h29.493v-21.303h-29.493h-55.579h-37.189v21.303h34.27v82.485l-105.686-15.81L94.303,170.991
	l89.331,92.287l72.628-121.077l72.279,121.077l89.157-92.287L388.344,349.998z"/>
</svg>
