<?xml version="1.0" encoding="utf-8"?>
<!-- Generator: Adobe Illustrator 16.0.0, SVG Export Plug-In . SVG Version: 6.00 Build 0)  -->
<!DOCTYPE svg PUBLIC "-//W3C//DTD SVG 1.1//EN" "http://www.w3.org/Graphics/SVG/1.1/DTD/svg11.dtd">
<svg version="1.1" id="Layer_1" xmlns="http://www.w3.org/2000/svg" xmlns:xlink="http://www.w3.org/1999/xlink" x="0px" y="0px"
	 width="512px" height="512px" viewBox="0 0 512 512" enable-background="new 0 0 512 512" xml:space="preserve">
<title>ionicons-v5-j</title>
<path d="M463.98,253.12C462.44,140.91,371.09,49.56,258.9,48C141.92,46.42,46.42,141.92,48,258.9
	C49.56,371.09,140.91,462.44,253.1,464C370.1,465.6,465.579,370.1,463.98,253.12z M209.708,135.523
	c12.204-13.127,29.399-20.358,48.412-20.358c18.861,0,36.044,7.275,48.336,20.484c12.424,13.373,18.479,31.374,17.052,50.675
	c-2.874,38.421-32.198,69.674-65.388,69.674c-33.247,0-62.564-31.26-65.387-69.687C191.349,166.834,197.366,148.796,209.708,135.523
	z M122.316,276.118v-25.148H97.167c-5.557,0-10.06-4.504-10.06-10.06c0-5.555,4.503-10.06,10.06-10.06h25.148v-25.148
	c0-5.556,4.503-10.06,10.06-10.06c5.556,0,10.06,4.504,10.06,10.06v25.148h25.149c5.555,0,10.06,4.504,10.06,10.06
	c0,5.556-4.504,10.06-10.06,10.06h-25.149v25.148c0,5.556-4.504,10.059-10.06,10.059
	C126.819,286.177,122.316,281.674,122.316,276.118z M383.995,389.835c-3.758,4.509-9.351,7.081-15.221,6.997h-221.31
	c-5.867,0.079-11.455-2.495-15.209-7.004c-4.087-4.885-5.734-11.556-4.521-18.302c5.306-29.437,21.874-54.164,47.902-71.517
	c23.118-15.404,52.41-23.892,82.482-23.892c30.071,0,59.364,8.487,82.481,23.897c26.029,17.353,42.596,42.08,47.902,71.518
	C389.717,378.279,388.07,384.95,383.995,389.835z"/>
</svg>
